# Blender 4.3.2
# www.blender.org
mtllib Blade.mtl
o Helice2
v 0.013286 0.011231 0.012448
v 0.021404 0.011231 0.009642
v 0.128342 0.011231 -0.010676
v 0.164966 0.011231 -0.016874
v 0.201591 0.011231 -0.024160
v 0.238216 0.011231 -0.034570
v 0.274840 0.011231 -0.046715
v 0.311465 0.011231 -0.058859
v 0.348090 0.011231 -0.075341
v 0.384715 0.011231 -0.093558
v 0.384714 -0.011231 -0.093558
v 0.348089 -0.011231 -0.075341
v 0.311465 -0.011231 -0.058859
v 0.274840 -0.011231 -0.046715
v 0.238215 -0.011231 -0.034570
v 0.201591 -0.011231 -0.024160
v 0.164966 -0.011231 -0.016874
v 0.128341 -0.011231 -0.010676
v 0.021404 -0.011231 0.009642
v 0.013286 -0.011231 0.012448
v 0.703205 -0.011231 -0.188861
v 0.688271 -0.011231 -0.168241
v 0.673338 -0.011231 -0.153871
v 0.703205 0.011231 -0.188861
v 0.688272 0.011231 -0.168241
v 0.673338 0.011231 -0.153871
v 0.673338 -0.011231 -0.289460
v 0.384714 0.011231 -0.245895
v 0.348089 0.011231 -0.225378
v 0.311465 0.011231 -0.208693
v 0.274840 0.011231 -0.190536
v 0.238215 0.011231 -0.162937
v 0.201591 0.011231 -0.135822
v 0.164966 0.011231 -0.107739
v 0.128341 0.011231 -0.083288
v 0.021404 0.011231 -0.013676
v 0.013286 0.011231 -0.012448
v 0.013286 -0.011231 -0.012448
v 0.021404 -0.011231 -0.013676
v 0.128342 -0.011231 -0.083288
v 0.164966 -0.011231 -0.107739
v 0.201591 -0.011231 -0.135822
v 0.238216 -0.011231 -0.162937
v 0.274840 -0.011231 -0.190536
v 0.311465 -0.011231 -0.208693
v 0.348090 -0.011231 -0.225378
v 0.384715 -0.011231 -0.245895
v 0.688272 -0.011231 -0.278338
v 0.703205 -0.011231 -0.266489
v 0.703205 0.011231 -0.266489
v 0.688271 0.011231 -0.278338
v 0.673338 0.011231 -0.289460
v 0.718139 0.011231 -0.221714
v 0.718138 -0.011231 -0.221714
v 0.718138 0.011231 -0.242637
v 0.718139 -0.011231 -0.242637
v 0.658405 -0.011231 -0.295854
v 0.658404 0.011231 -0.295854
v 0.658404 -0.011231 -0.146775
v 0.658405 0.011231 -0.146775
v 0.548712 0.011231 -0.137001
v 0.548711 -0.011231 -0.137001
v 0.548711 0.011231 -0.286079
v 0.548712 -0.011231 -0.286079
v 0.460740 -0.011231 -0.271960
v 0.460739 0.011231 -0.271960
v 0.460739 -0.011231 -0.122882
v 0.460740 0.011231 -0.122882
v -0.013250 0.011231 -0.012448
v -0.021368 0.011231 -0.009641
v -0.128306 0.011231 0.010676
v -0.164930 0.011231 0.016874
v -0.201555 0.011231 0.024160
v -0.238180 0.011231 0.034570
v -0.274804 0.011231 0.046715
v -0.311429 0.011231 0.058859
v -0.348054 0.011231 0.075341
v -0.384679 0.011231 0.093558
v -0.384678 -0.011231 0.093558
v -0.348053 -0.011231 0.075341
v -0.311429 -0.011231 0.058859
v -0.274804 -0.011231 0.046715
v -0.238179 -0.011231 0.034570
v -0.201555 -0.011231 0.024160
v -0.164930 -0.011231 0.016874
v -0.128305 -0.011231 0.010676
v -0.021368 -0.011231 -0.009641
v -0.013250 -0.011231 -0.012448
v -0.703169 -0.011231 0.188861
v -0.688235 -0.011231 0.168241
v -0.673302 -0.011231 0.153871
v -0.703169 0.011231 0.188861
v -0.688236 0.011231 0.168241
v -0.673302 0.011231 0.153871
v -0.673302 -0.011231 0.289461
v -0.384678 0.011231 0.245895
v -0.348053 0.011231 0.225378
v -0.311429 0.011231 0.208693
v -0.274804 0.011231 0.190536
v -0.238179 0.011231 0.162937
v -0.201555 0.011231 0.135822
v -0.164930 0.011231 0.107739
v -0.128305 0.011231 0.083288
v -0.021368 0.011231 0.013676
v -0.013250 0.011231 0.012448
v -0.013250 -0.011231 0.012448
v -0.021368 -0.011231 0.013676
v -0.128306 -0.011231 0.083288
v -0.164930 -0.011231 0.107739
v -0.201555 -0.011231 0.135822
v -0.238180 -0.011231 0.162937
v -0.274804 -0.011231 0.190536
v -0.311429 -0.011231 0.208693
v -0.348054 -0.011231 0.225378
v -0.384679 -0.011231 0.245895
v -0.688236 -0.011231 0.278339
v -0.703169 -0.011231 0.266489
v -0.703169 0.011231 0.266489
v -0.688235 0.011231 0.278339
v -0.673302 0.011231 0.289461
v -0.718103 0.011231 0.221714
v -0.718102 -0.011231 0.221714
v -0.718102 0.011231 0.242637
v -0.718103 -0.011231 0.242637
v -0.658369 -0.011231 0.295854
v -0.658368 0.011231 0.295854
v -0.658368 -0.011231 0.146775
v -0.658369 0.011231 0.146775
v -0.548676 0.011231 0.137001
v -0.548675 -0.011231 0.137001
v -0.548675 0.011231 0.286079
v -0.548676 -0.011231 0.286079
v -0.460704 -0.011231 0.271960
v -0.460703 0.011231 0.271960
v -0.460703 -0.011231 0.122882
v -0.460704 0.011231 0.122882
vn -0.0000 -1.0000 -0.0000
vn 0.4292 -0.0000 0.9032
vn 0.6934 -0.0000 0.7206
vn 0.8099 -0.0000 0.5866
vn 0.3936 -0.0000 -0.9193
vn 0.5973 -0.0000 -0.8020
vn 0.6216 -0.0000 -0.7834
vn 0.3267 -0.0000 0.9451
vn 0.1867 -0.0000 0.9824
vn 0.1668 -0.0000 0.9860
vn 0.1951 -0.0000 0.9808
vn 0.2734 -0.0000 0.9619
vn 0.3147 -0.0000 0.9492
vn 0.4104 -0.0000 0.9119
vn 0.4453 -0.0000 0.8954
vn -0.0000 1.0000 -0.0000
vn 0.8476 -0.0000 -0.5307
vn 0.9104 -0.0000 0.4138
vn -0.0888 -0.0000 -0.9961
vn 0.0888 -0.0000 0.9961
vn -0.1585 -0.0000 -0.9874
vn 0.1585 -0.0000 0.9874
vn -0.3243 -0.0000 -0.9459
vn 0.3599 -0.0000 0.9330
vn -0.4887 -0.0000 -0.8724
vn -0.4146 -0.0000 -0.9100
vn -0.4442 -0.0000 -0.8959
vn -0.6018 -0.0000 -0.7986
vn -0.5950 -0.0000 -0.8037
vn -0.6085 -0.0000 -0.7936
vn -0.5553 -0.0000 -0.8317
vn -0.5456 -0.0000 -0.8381
vn -0.1495 -0.0000 -0.9888
vn -0.4292 -0.0000 -0.9032
vn -0.6934 -0.0000 -0.7206
vn -0.8099 -0.0000 -0.5866
vn -0.3936 -0.0000 0.9193
vn -0.5973 -0.0000 0.8020
vn -0.6216 -0.0000 0.7833
vn -0.3267 -0.0000 -0.9451
vn -0.1867 -0.0000 -0.9824
vn -0.1668 -0.0000 -0.9860
vn -0.1951 -0.0000 -0.9808
vn -0.2734 -0.0000 -0.9619
vn -0.3147 -0.0000 -0.9492
vn -0.4104 -0.0000 -0.9119
vn -0.4453 -0.0000 -0.8954
vn -0.8476 -0.0000 0.5307
vn -0.9104 -0.0000 -0.4138
vn 0.3243 -0.0000 0.9459
vn -0.3599 -0.0000 -0.9330
vn 0.4887 -0.0000 0.8724
vn 0.4146 -0.0000 0.9100
vn 0.4442 -0.0000 0.8959
vn 0.6018 -0.0000 0.7986
vn 0.5950 -0.0000 0.8037
vn 0.6085 -0.0000 0.7936
vn 0.5553 -0.0000 0.8317
vn 0.5456 -0.0000 0.8381
vn 0.1495 -0.0000 0.9888
vn 1.0000 -0.0000 -0.0000
vn -1.0000 -0.0000 -0.0000
vn -0.0000 -0.0000 -1.0000
vn -0.0000 -0.0000 1.0000
s 0
usemtl Helice
f 20//1 38//1 39//1 19//1
f 19//1 39//1 40//1 18//1
f 18//1 40//1 41//1 17//1
f 17//1 41//1 42//1 16//1
f 16//1 42//1 43//1 15//1
f 15//1 43//1 44//1 14//1
f 14//1 44//1 45//1 13//1
f 13//1 45//1 46//1 12//1
f 12//1 46//1 47//1 11//1
f 48//1 49//1 21//1 22//1
f 59//2 23//2 26//2 60//2
f 23//3 22//3 25//3 26//3
f 22//4 21//4 24//4 25//4
f 58//5 52//5 27//5 57//5
f 52//6 51//6 48//6 27//6
f 51//7 50//7 49//7 48//7
f 1//8 20//8 19//8 2//8
f 2//9 19//9 18//9 3//9
f 3//10 18//10 17//10 4//10
f 4//11 17//11 16//11 5//11
f 5//12 16//12 15//12 6//12
f 6//13 15//13 14//13 7//13
f 7//13 14//13 13//13 8//13
f 8//14 13//14 12//14 9//14
f 9//15 12//15 11//15 10//15
f 126//16 131//16 134//16 96//16 97//16 98//16 99//16 100//16 101//16 102//16 103//16 104//16 70//16 71//16 72//16 73//16 74//16 75//16 76//16 77//16 78//16 136//16 129//16 128//16 94//16 93//16 92//16 121//16 123//16 118//16 119//16 120//16
f 2//16 36//16 37//16 1//16
f 27//1 48//1 22//1 23//1
f 57//1 27//1 23//1 59//1
f 50//17 55//17 56//17 49//17
f 21//18 54//18 53//18 24//18
f 49//1 56//1 54//1 21//1
f 63//19 58//19 57//19 64//19
f 64//1 57//1 59//1 62//1
f 62//20 59//20 60//20 61//20
f 65//1 64//1 62//1 67//1
f 66//21 63//21 64//21 65//21
f 67//22 62//22 61//22 68//22
f 28//23 66//23 65//23 47//23
f 11//24 67//24 68//24 10//24
f 47//1 65//1 67//1 11//1
f 28//25 47//25 46//25 29//25
f 29//26 46//26 45//26 30//26
f 30//27 45//27 44//27 31//27
f 31//28 44//28 43//28 32//28
f 32//29 43//29 42//29 33//29
f 33//30 42//30 41//30 34//30
f 34//31 41//31 40//31 35//31
f 35//32 40//32 39//32 36//32
f 36//33 39//33 38//33 37//33
f 88//1 106//1 107//1 87//1
f 87//1 107//1 108//1 86//1
f 86//1 108//1 109//1 85//1
f 85//1 109//1 110//1 84//1
f 84//1 110//1 111//1 83//1
f 83//1 111//1 112//1 82//1
f 82//1 112//1 113//1 81//1
f 81//1 113//1 114//1 80//1
f 80//1 114//1 115//1 79//1
f 116//1 117//1 89//1 90//1
f 127//34 91//34 94//34 128//34
f 91//35 90//35 93//35 94//35
f 90//36 89//36 92//36 93//36
f 126//37 120//37 95//37 125//37
f 120//38 119//38 116//38 95//38
f 119//39 118//39 117//39 116//39
f 69//40 88//40 87//40 70//40
f 70//41 87//41 86//41 71//41
f 71//42 86//42 85//42 72//42
f 72//43 85//43 84//43 73//43
f 73//44 84//44 83//44 74//44
f 74//45 83//45 82//45 75//45
f 75//45 82//45 81//45 76//45
f 76//46 81//46 80//46 77//46
f 77//47 80//47 79//47 78//47
f 70//16 104//16 105//16 69//16
f 95//1 116//1 90//1 91//1
f 125//1 95//1 91//1 127//1
f 118//48 123//48 124//48 117//48
f 89//49 122//49 121//49 92//49
f 117//1 124//1 122//1 89//1
f 131//20 126//20 125//20 132//20
f 132//1 125//1 127//1 130//1
f 130//19 127//19 128//19 129//19
f 133//1 132//1 130//1 135//1
f 134//22 131//22 132//22 133//22
f 135//21 130//21 129//21 136//21
f 96//50 134//50 133//50 115//50
f 79//51 135//51 136//51 78//51
f 115//1 133//1 135//1 79//1
f 96//52 115//52 114//52 97//52
f 97//53 114//53 113//53 98//53
f 98//54 113//54 112//54 99//54
f 99//55 112//55 111//55 100//55
f 100//56 111//56 110//56 101//56
f 101//57 110//57 109//57 102//57
f 102//58 109//58 108//58 103//58
f 103//59 108//59 107//59 104//59
f 104//60 107//60 106//60 105//60
f 58//16 63//16 66//16 28//16 29//16 30//16 31//16 32//16 33//16 34//16 35//16 36//16 2//16 3//16 4//16 5//16 6//16 7//16 8//16 9//16 10//16 68//16 61//16 60//16 26//16 25//16 24//16 53//16 55//16 50//16 51//16 52//16
f 55//61 53//61 54//61 56//61
f 123//62 121//62 122//62 124//62
f 37//63 38//63 88//63 69//63
f 1//16 37//16 69//16 105//16
f 69//62 88//62 106//62 105//62
f 106//1 88//1 38//1 20//1
f 105//64 106//64 20//64 1//64
